<svg version="1.2" baseProfile="tiny-ps" xmlns="http://www.w3.org/2000/svg" viewBox="0 0 200 200" width="200" height="200">
	<title>logo-svg</title>
	<style>
		tspan { white-space:pre }
		.shp0 { fill: #000000 } 
		.shp1 { fill: #ff0000 } 
	</style>
	<g id="Layer">
		<path id="Layer" fill-rule="evenodd" class="shp0" d="M98 19.1C100 19 100.2 19.2 99 20.1C97.8 21 97.9 21 99.5 20.3C102.7 19 113.9 19.6 121 21.5C131.4 24.2 151.2 34.1 149.6 35.8C149.2 36.1 148.4 35.8 147.8 35.2C147.1 34.5 146.2 34 145.7 34C143.8 34 147.6 37.2 155.7 42.6C160.2 45.6 164 48.7 164 49.4C164 50.1 165.1 51.7 166.5 53C167.9 54.3 169 55.8 169 56.3C169 56.9 167.8 56.3 166.4 54.9L163.8 52.5L166 56.5C167.2 58.7 169.8 62.2 171.7 64.4C174.1 67 175 68.8 174.6 70.3C174.4 71.4 175 74.1 176.1 76.3C177.8 79.5 178.3 82.8 178.7 93.9C178.9 101.4 179.6 107.7 180 108C180.9 108.6 180.5 110.5 177.7 121C176.8 124 176.4 126.8 176.6 127.2C176.9 127.6 176.6 128.8 176 129.7C175.1 131.1 175 131.1 175.3 129.9C175.6 129 175.4 127.7 175 127C174.3 125.9 173.9 126.2 173.2 128.1C169.8 136.6 168.2 139.8 165.3 143.3C163.5 145.4 162 147.6 162 148.2C162 148.8 158.9 152.4 155 156.2C151.2 160 148 163.5 148 164C148 164.4 147.4 165.3 146.6 165.9C145.5 166.8 145.1 166.8 144.8 165.9C144.2 164.1 142 165.8 142 168C142 169.5 140.7 170.3 136.5 171.5C133.5 172.4 131 173.5 131 174C131 174.4 128.9 175.5 126.3 176.4C121 178.2 119.9 178.4 122 177C123.2 176.2 123.1 176 121.3 176C120 176 119 176.6 119 177.4C119 178.8 116.7 179.3 105 180.4C100.9 180.9 100 180.7 101.5 180C103.2 179.1 103.1 179.1 101 179.7C95.5 181.3 84.6 180.2 75 177.1C64.2 173.6 49 165.2 51.2 163.9C52.8 162.9 52.6 162.8 43.3 156.6C39.3 154 36 151.3 36 150.6C36 149.9 34.9 148.3 33.5 147C32.1 145.7 31 144.2 31 143.6C31 143.1 32.5 143.9 34.2 145.6C36 147.2 36.8 147.6 35.9 146.5C35.1 145.4 33.8 143.3 33.1 141.8C32.3 140.3 31.3 139.3 30.8 139.6C30.3 139.9 30.1 139.8 30.2 139.3C30.4 138.9 29.2 136.8 27.7 134.8C25.9 132.5 25.1 130.4 25.4 129.3C25.7 128.3 25.1 125.7 23.9 123.6C22.2 120.3 21.7 117.3 21.3 106.1C21.1 98.6 20.4 92.3 20 92C19.1 91.4 19.5 89.5 22.3 79C23.2 76 23.6 73.2 23.4 72.8C23.1 72.3 23.4 72 23.9 72C24.5 72 25 72.4 25 73C25 75.1 26.8 73.9 27.5 71.2C27.8 69.7 28.9 66.9 29.7 65C32.7 58.5 44.4 43.3 49 40C50.6 38.8 52 37.3 52 36.6C52 34.6 54.7 32.6 55.2 34.1C55.8 35.9 58 34.2 58 32C58 30.5 59.3 29.7 63.5 28.5C66.5 27.6 69 26.5 69 26C69 25.6 71.1 24.5 73.7 23.6C79 21.8 80.1 21.6 78 23C76.8 23.8 76.9 24 78.8 24C80 24 81 23.4 81 22.6C81 21.6 82.7 21 86.8 20.5C89.9 20.2 93.2 19.7 94 19.6C94.8 19.4 96.6 19.2 98 19.1ZM103.5 20.9C102.2 21.4 104 21.9 109 22.3C113.1 22.7 117.6 23.3 119 23.6C120.4 24 121.2 24 120.8 23.6C120.5 23.2 117.6 22.2 114.3 21.5C107.8 19.9 106.3 19.8 103.5 20.9ZM90 21.2C88.6 21.2 88.1 21.4 88.8 21.7C89.4 21.9 90.6 21.9 91.3 21.7C91.9 21.4 91.4 21.2 90 21.2ZM75.5 24C75 24 73.8 24.5 73 25C72.2 25.5 72 26 72.5 26C73.1 26 74.2 25.5 75 25C75.8 24.5 76.1 24 75.5 24ZM141.1 31.9C142.4 33 143.7 33.6 143.9 33.4C144.2 33.2 143.5 32.3 142.4 31.5C139.6 29.3 138.4 29.7 141.1 31.9ZM159.7 47C159.3 47 159.4 47.9 160 49C160.6 50.1 161.5 51 162 51C162.6 51 162.5 50.1 161.8 49C161.1 47.9 160.2 47 159.7 47ZM101.6 110C100.7 110 99.8 112.1 99.1 116.3C97.7 124.2 97.7 124 99.4 124C100.2 124 101.1 122.6 101.5 121C101.9 119.3 102.6 118 103.1 118C103.6 118 104 119.3 104 121C104 123.2 104.5 124 105.8 124C107.3 124 107.6 123.2 107.6 119.7C107.5 116.1 107.2 115.5 105.3 115.2C103.6 114.9 103 114.2 103 112.4C103 111 102.4 110 101.6 110ZM63.2 111C61.7 111 61.2 112.1 60.4 117.5C59.5 123.5 59.5 124 61.2 124C62.4 124 63 123.2 63 121.6C63 120.2 63.5 118.8 64 118.5C64.6 118.2 65 118.6 65 119.4C65 121.5 67.6 121.4 69 119.2C69.9 117.8 70 118.1 69.7 120.7C69.4 123.3 69.7 124 71 124C72.3 124 72.9 122.8 73.4 119.7C73.8 117.4 74.3 114.5 74.7 113.2C75.5 109.7 71.6 110.3 69.2 114.1L67.3 117.2L66.2 114.1C65.5 112.1 64.4 111 63.2 111ZM92.7 111L88.3 111L87.6 115.2C87.2 117.6 86.7 120.5 86.3 121.7C85.9 123.4 86.2 124 87.5 124C88.4 124 89.4 123.1 89.7 122.1C90 120.9 91.2 120 92.8 119.8C95.7 119.5 98.6 115 97.6 112.4C97.3 111.5 95.6 111 92.7 111ZM78.5 115C76.5 115 75.8 116.6 76.1 120.8C76.3 122.9 76 125.2 75.5 125.9C74.4 127.7 77.4 130 80.1 129.3C82.7 128.6 83.7 126.5 84.6 120.2C85.2 115.8 85 115 83.6 115C82.7 115 82 115.8 82 116.9C82 119.6 81 122 79.8 122C79.2 122 79 120.6 79.3 118.5C79.7 115.9 79.5 115 78.5 115ZM115.5 115.2C111.7 114.8 110 116.5 110 120.7C110 123.8 110.2 124 113.5 124C117.3 124 119.4 121.6 118.8 117.7C118.6 116.1 117.7 115.4 115.5 115.2ZM129.4 115.5L125.2 115.2C121.4 114.9 121 115.1 121 117.2C121 118.5 120.7 120.5 120.4 121.7C119.9 123.4 120.2 124 121.4 124C122.4 124 123.3 122.9 123.7 121C124 119.3 124.6 118 125.1 118C125.6 118 126 119.3 126 121C126 123.2 126.5 124 127.8 124C129.3 124 129.6 123.2 129.5 119.7L129.4 115.5ZM137.4 115.2C133.8 114.8 132 116.6 131.7 120.7C131.5 123.2 131.8 123.5 135.1 123.8C137.8 124 138.9 123.7 139.4 122.4C139.9 121.1 139.5 120.9 137.5 121.2C136.1 121.5 135 121.4 135 120.9C135 120.5 136.2 120 137.8 119.8C139.7 119.6 140.5 118.9 140.5 117.5C140.5 116 139.7 115.4 137.4 115.2ZM38 149C37.4 149 37.5 149.9 38.2 151C38.9 152.1 39.8 153 40.3 153C40.7 153 40.6 152.1 40 151C39.4 149.9 38.5 149 38 149ZM52.9 164C52.3 164 52.2 164.4 52.5 165C52.8 165.5 53.6 166 54.1 166C54.7 166 54.8 165.5 54.5 165C54.2 164.4 53.4 164 52.9 164ZM58.5 167.6C57.1 166.7 56 166.3 56 166.7C56 167.7 60 170.3 60.6 169.7C60.9 169.5 59.9 168.5 58.5 167.6ZM82.8 176.5C76.3 175.2 78.7 176.6 85.9 178.4C90.2 179.5 93.9 179.8 95.7 179.3C98.1 178.7 97.7 178.5 92.5 177.9C89.2 177.6 84.8 176.9 82.8 176.5ZM109 178.2C107.1 178.2 106.3 178.4 107.3 178.7C108.2 178.9 109.8 178.9 110.8 178.7C111.7 178.4 110.9 178.2 109 178.2Z" />
		<path id="Layer" class="shp0" d="M92.5 114C93.3 114 94 114.7 94 115.5C94 116.3 93.3 117 92.5 117C91.7 117 91 116.3 91 115.5C91 114.7 91.7 114 92.5 114Z" />
		<path id="Layer" class="shp0" d="M80.4 125.5C80 126.3 79.4 127 78.9 127C77.8 127 77.7 125.6 78.7 124.7C79.9 123.5 80.9 124 80.4 125.5Z" />
		<path id="Layer" class="shp0" d="M115.2 117.8C116.2 118.8 115.2 122 113.9 122C112.8 122 112.7 118.6 113.7 117.6C114.1 117.3 114.7 117.3 115.2 117.8Z" />
		<path id="Layer" class="shp0" d="M136.6 117C136.8 117 137 117.4 137 118C137 118.5 136.5 119 135.9 119C135.4 119 135.2 118.5 135.5 118C135.8 117.4 136.3 117 136.6 117Z" />
		<path id="Layer" class="shp0" d="M31 59C29.3 61.8 28 64.5 28 65C28 65.5 27.5 66.2 26.9 66.5C25.5 67.4 28.4 60.6 31 56.9C34.3 52.4 34.3 53.5 31 59Z" />
		<path id="Layer" class="shp0" d="M25.3 69.5C25 70.4 24.5 70.9 24.3 70.6C24 70.3 24.1 69.7 24.5 69.1C25.4 67.5 26 67.8 25.3 69.5Z" />
		<path id="Layer" class="shp0" d="M176.1 71.7C176.8 72.4 177.1 73.2 176.8 73.5C176.5 73.8 175.9 73.3 175.6 72.3C175 70.9 175.1 70.8 176.1 71.7Z" />
		<path id="Layer" class="shp0" d="M180.7 95.7C180.9 97 180.9 99.2 180.7 100.7C180.5 102.3 180.3 101.2 180.3 98.5C180.3 95.7 180.5 94.5 180.7 95.7Z" />
		<path id="Layer" class="shp0" d="M19.7 99.7C19.9 101 19.9 103 19.7 104.2C19.5 105.5 19.3 104.5 19.3 102C19.3 99.5 19.5 98.5 19.7 99.7Z" />
		<path id="Layer" class="shp0" d="M24 126.5C24.6 126.8 25 127.6 25 128.1C25 128.7 24.6 128.8 24 128.5C23.5 128.2 23 127.4 23 126.9C23 126.3 23.5 126.2 24 126.5Z" />
		<path id="Layer" class="shp0" d="M173.6 133.3C174.3 134 169.3 143.5 167.3 145.1C166.6 145.7 167.6 143.6 169.5 140.4C171.4 137.2 173 134.2 173 133.6C173 133.1 173.3 132.9 173.6 133.3Z" />
		<path id="Layer 1" class="shp1" d="M70 75C70 62.85 79.85 53 92 53L108 53C120.15 53 130 62.85 130 75L130 83C130 95.15 120.15 105 108 105L92 105C79.85 105 70 95.15 70 83L70 75Z" />
		<path id="Shape 1" class="shp0" d="M81 64C81 61.24 83.24 59 86 59L91 59C93.76 59 96 61.24 96 64L96 64C96 66.76 93.76 69 91 69L86 69C83.24 69 81 66.76 81 64L81 64Z" />
	</g>
</svg>